<svg xmlns="http://www.w3.org/2000/svg" xmlns:xlink="http://www.w3.org/1999/xlink" width="500" zoomAndPan="magnify" viewBox="0 0 375 374.999991" height="500" preserveAspectRatio="xMidYMid meet" version="1.0"><defs><g/></defs><g fill="#ffffff" fill-opacity="1"><g transform="translate(13.391605, 221.999985)"><g><path d="M 7.625 0 L 7.625 -72.0625 L 16.265625 -72.0625 L 54.65625 -14.3125 L 54.65625 -72.0625 L 63.3125 -72.0625 L 63.3125 0 L 54.65625 0 L 16.265625 -57.75 L 16.265625 0 Z M 7.625 0 "/></g></g></g><g fill="#ffffff" fill-opacity="1"><g transform="translate(84.307502, 221.999985)"><g><path d="M 30.0625 1.234375 C 25.1875 1.234375 20.859375 0.117188 17.078125 -2.109375 C 13.304688 -4.335938 10.335938 -7.441406 8.171875 -11.421875 C 6.015625 -15.398438 4.9375 -20.101562 4.9375 -25.53125 C 4.9375 -30.882812 6 -35.566406 8.125 -39.578125 C 10.257812 -43.585938 13.226562 -46.707031 17.03125 -48.9375 C 20.84375 -51.175781 25.253906 -52.296875 30.265625 -52.296875 C 35.203125 -52.296875 39.472656 -51.175781 43.078125 -48.9375 C 46.679688 -46.707031 49.441406 -43.773438 51.359375 -40.140625 C 53.285156 -36.503906 54.25 -32.59375 54.25 -28.40625 C 54.25 -27.65625 54.226562 -26.898438 54.1875 -26.140625 C 54.15625 -25.390625 54.140625 -24.535156 54.140625 -23.578125 L 13.484375 -23.578125 C 13.691406 -19.660156 14.597656 -16.414062 16.203125 -13.84375 C 17.816406 -11.269531 19.84375 -9.332031 22.28125 -8.03125 C 24.71875 -6.726562 27.3125 -6.078125 30.0625 -6.078125 C 33.625 -6.078125 36.601562 -6.898438 39 -8.546875 C 41.40625 -10.191406 43.160156 -12.421875 44.265625 -15.234375 L 52.8125 -15.234375 C 51.4375 -10.492188 48.804688 -6.5625 44.921875 -3.4375 C 41.046875 -0.320312 36.09375 1.234375 30.0625 1.234375 Z M 30.0625 -44.984375 C 25.9375 -44.984375 22.28125 -43.726562 19.09375 -41.21875 C 15.90625 -38.71875 14.070312 -35.066406 13.59375 -30.265625 L 45.703125 -30.265625 C 45.492188 -34.859375 43.914062 -38.457031 40.96875 -41.0625 C 38.019531 -43.675781 34.382812 -44.984375 30.0625 -44.984375 Z M 30.0625 -44.984375 "/></g></g></g><g fill="#ffffff" fill-opacity="1"><g transform="translate(140.504901, 221.999985)"><g><path d="M 1.953125 0 L 19.65625 -25.53125 L 1.953125 -51.0625 L 11.328125 -51.0625 L 25.625 -29.953125 L 40.046875 -51.0625 L 49.3125 -51.0625 L 31.609375 -25.53125 L 49.3125 0 L 40.046875 0 L 25.625 -21.109375 L 11.328125 0 Z M 1.953125 0 "/></g></g></g><g fill="#ffffff" fill-opacity="1"><g transform="translate(191.761967, 221.999985)"><g><path d="M 25.734375 1.234375 C 19.691406 1.234375 14.882812 -0.597656 11.3125 -4.265625 C 7.75 -7.941406 5.96875 -13.585938 5.96875 -21.203125 L 5.96875 -51.0625 L 14.609375 -51.0625 L 14.609375 -22.125 C 14.609375 -11.488281 18.96875 -6.171875 27.6875 -6.171875 C 32.144531 -6.171875 35.832031 -7.765625 38.75 -10.953125 C 41.664062 -14.148438 43.125 -18.703125 43.125 -24.609375 L 43.125 -51.0625 L 51.78125 -51.0625 L 51.78125 0 L 43.953125 0 L 43.34375 -9.15625 C 41.757812 -5.9375 39.40625 -3.398438 36.28125 -1.546875 C 33.164062 0.304688 29.648438 1.234375 25.734375 1.234375 Z M 25.734375 1.234375 "/></g></g></g><g fill="#ffffff" fill-opacity="1"><g transform="translate(250.635532, 221.999985)"><g><path d="M 26.65625 1.234375 C 20.550781 1.234375 15.472656 -0.304688 11.421875 -3.390625 C 7.378906 -6.484375 5.015625 -10.671875 4.328125 -15.953125 L 13.171875 -15.953125 C 13.722656 -13.273438 15.144531 -10.957031 17.4375 -9 C 19.738281 -7.050781 22.847656 -6.078125 26.765625 -6.078125 C 30.398438 -6.078125 33.070312 -6.847656 34.78125 -8.390625 C 36.5 -9.929688 37.359375 -11.765625 37.359375 -13.890625 C 37.359375 -16.984375 36.242188 -19.039062 34.015625 -20.0625 C 31.785156 -21.09375 28.648438 -22.023438 24.609375 -22.859375 C 21.859375 -23.398438 19.109375 -24.1875 16.359375 -25.21875 C 13.617188 -26.25 11.320312 -27.707031 9.46875 -29.59375 C 7.613281 -31.476562 6.6875 -33.96875 6.6875 -37.0625 C 6.6875 -41.519531 8.347656 -45.171875 11.671875 -48.015625 C 15.003906 -50.867188 19.519531 -52.296875 25.21875 -52.296875 C 30.644531 -52.296875 35.085938 -50.9375 38.546875 -48.21875 C 42.015625 -45.507812 44.023438 -41.648438 44.578125 -36.640625 L 36.03125 -36.640625 C 35.6875 -39.253906 34.570312 -41.296875 32.6875 -42.765625 C 30.800781 -44.242188 28.273438 -44.984375 25.109375 -44.984375 C 22.023438 -44.984375 19.640625 -44.332031 17.953125 -43.03125 C 16.273438 -41.726562 15.4375 -40.007812 15.4375 -37.875 C 15.4375 -35.820312 16.515625 -34.210938 18.671875 -33.046875 C 20.835938 -31.878906 23.773438 -30.882812 27.484375 -30.0625 C 30.640625 -29.375 33.640625 -28.53125 36.484375 -27.53125 C 39.335938 -26.539062 41.671875 -25.066406 43.484375 -23.109375 C 45.304688 -21.148438 46.21875 -18.316406 46.21875 -14.609375 C 46.289062 -10.015625 44.554688 -6.222656 41.015625 -3.234375 C 37.484375 -0.253906 32.695312 1.234375 26.65625 1.234375 Z M 26.65625 1.234375 "/></g></g></g><g fill="#ffffff" fill-opacity="1"><g transform="translate(302.098466, 221.999985)"><g><path d="M 30.578125 1.234375 C 25.285156 1.234375 20.679688 0.273438 16.765625 -1.640625 C 12.859375 -3.566406 9.84375 -6.242188 7.71875 -9.671875 C 5.59375 -13.109375 4.53125 -17.085938 4.53125 -21.609375 L 13.59375 -21.609375 C 13.59375 -18.796875 14.242188 -16.207031 15.546875 -13.84375 C 16.847656 -11.476562 18.75 -9.59375 21.25 -8.1875 C 23.757812 -6.78125 26.867188 -6.078125 30.578125 -6.078125 C 35.441406 -6.078125 39.210938 -7.242188 41.890625 -9.578125 C 44.566406 -11.910156 45.90625 -14.828125 45.90625 -18.328125 C 45.90625 -21.203125 45.285156 -23.515625 44.046875 -25.265625 C 42.816406 -27.015625 41.15625 -28.4375 39.0625 -29.53125 C 36.96875 -30.632812 34.566406 -31.597656 31.859375 -32.421875 C 29.148438 -33.242188 26.316406 -34.171875 23.359375 -35.203125 C 17.804688 -37.128906 13.691406 -39.515625 11.015625 -42.359375 C 8.335938 -45.203125 7 -48.925781 7 -53.53125 C 6.925781 -57.375 7.816406 -60.785156 9.671875 -63.765625 C 11.523438 -66.753906 14.148438 -69.085938 17.546875 -70.765625 C 20.941406 -72.453125 24.972656 -73.296875 29.640625 -73.296875 C 34.242188 -73.296875 38.242188 -72.4375 41.640625 -70.71875 C 45.035156 -69 47.675781 -66.628906 49.5625 -63.609375 C 51.445312 -60.597656 52.425781 -57.171875 52.5 -53.328125 L 43.4375 -53.328125 C 43.4375 -55.316406 42.921875 -57.285156 41.890625 -59.234375 C 40.859375 -61.191406 39.296875 -62.785156 37.203125 -64.015625 C 35.117188 -65.253906 32.5 -65.875 29.34375 -65.875 C 25.425781 -65.945312 22.210938 -64.953125 19.703125 -62.890625 C 17.203125 -60.835938 15.953125 -57.988281 15.953125 -54.34375 C 15.953125 -51.257812 16.828125 -48.894531 18.578125 -47.25 C 20.328125 -45.601562 22.78125 -44.25 25.9375 -43.1875 C 29.09375 -42.125 32.734375 -40.90625 36.859375 -39.53125 C 40.285156 -38.289062 43.367188 -36.847656 46.109375 -35.203125 C 48.859375 -33.554688 51.003906 -31.425781 52.546875 -28.8125 C 54.085938 -26.207031 54.859375 -22.882812 54.859375 -18.84375 C 54.859375 -15.40625 53.96875 -12.160156 52.1875 -9.109375 C 50.40625 -6.054688 47.710938 -3.566406 44.109375 -1.640625 C 40.503906 0.273438 35.992188 1.234375 30.578125 1.234375 Z M 30.578125 1.234375 "/></g></g></g></svg>